<svg xmlns="http://www.w3.org/2000/svg" viewBox="0 0 80 80">
    <path d="M 40.490234 6.9902344 C 34.583981 6.8908262 28.740562 8.3901094 23.492188 11.419922 C 12.917188 17.525922 7 28.642641 7 40.056641 C 7 45.650641 8.4220625 51.316 11.414062 56.5 C 15.821063 64.134 22.936172 69.595953 31.451172 71.876953 C 39.965172 74.157953 48.858188 72.985125 56.492188 68.578125 C 67.358187 62.305125 73.306703 50.742 72.970703 39 L 70.957031 39 C 70.967031 39.316 70.986328 39.632266 70.986328 39.947266 C 70.986328 50.669266 65.425187 61.110703 55.492188 66.845703 C 48.321188 70.986703 39.968703 72.085359 31.970703 69.943359 C 23.971703 67.799359 17.286484 62.671 13.146484 55.5 C 4.6004844 40.694 9.6901875 21.698344 24.492188 13.152344 C 31.663187 9.0113437 40.017625 7.9126875 48.015625 10.054688 C 51.474033 10.981622 54.678401 12.478896 57.544922 14.447266 L 52.992188 19 L 66.992188 22 L 63.992188 8 L 58.986328 13.005859 C 55.857935 10.805201 52.338399 9.1431035 48.533203 8.1230469 C 45.872578 7.4102344 43.174895 7.0354199 40.490234 6.9902344 z M 39.992188 12 A 1 1 0 0 0 38.992188 13 A 1 1 0 0 0 39.992188 14 A 1 1 0 0 0 40.992188 13 A 1 1 0 0 0 39.992188 12 z M 45.287109 12.517578 A 1 1 0 0 0 44.28125 13.322266 A 1 1 0 0 0 45.066406 14.498047 A 1 1 0 0 0 46.242188 13.712891 A 1 1 0 0 0 45.457031 12.537109 A 1 1 0 0 0 45.287109 12.517578 z M 34.730469 12.519531 A 1 1 0 0 0 34.53125 12.537109 A 1 1 0 0 0 33.746094 13.712891 A 1 1 0 0 0 34.921875 14.5 A 1 1 0 0 0 35.707031 13.324219 A 1 1 0 0 0 34.730469 12.519531 z M 29.667969 14.054688 A 1 1 0 0 0 29.277344 14.130859 A 1 1 0 0 0 28.736328 15.4375 A 1 1 0 0 0 30.042969 15.978516 A 1 1 0 0 0 30.583984 14.671875 A 1 1 0 0 0 29.667969 14.054688 z M 50.347656 14.054688 A 1 1 0 0 0 49.402344 14.671875 A 1 1 0 0 0 49.943359 15.978516 A 1 1 0 0 0 51.25 15.4375 A 1 1 0 0 0 50.708984 14.130859 A 1 1 0 0 0 50.347656 14.054688 z M 25.003906 16.548828 A 1 1 0 0 0 24.4375 16.716797 A 1 1 0 0 0 24.162109 18.103516 A 1 1 0 0 0 25.548828 18.380859 A 1 1 0 0 0 25.824219 16.994141 A 1 1 0 0 0 25.003906 16.548828 z M 20.916016 19.908203 A 1 1 0 0 0 20.193359 20.201172 A 1 1 0 0 0 20.193359 21.615234 A 1 1 0 0 0 21.607422 21.615234 A 1 1 0 0 0 21.607422 20.201172 A 1 1 0 0 0 20.916016 19.908203 z M 38.681641 23 C 34.714858 23 31.135604 25.144882 28.523438 27.216797 C 25.911271 29.288711 24.222656 31.369141 24.222656 31.369141 L 23.259766 32.556641 L 24.734375 32.964844 C 24.734375 32.964844 25.245318 33.101478 25.824219 33.632812 C 26.403119 34.164147 27 35.01386 27 36.679688 C 27 39.436413 27.453269 41.643663 27.542969 42.066406 C 27.20805 42.452156 27 42.938075 27 43.5 C 27 44.077938 27.158713 44.536765 27.287109 44.992188 C 27.351309 45.219898 27.414208 45.430856 27.455078 45.587891 C 27.495948 45.744926 27.5 45.901527 27.5 45.75 C 27.5 46.762636 28.257676 47.48714 29.1875 47.763672 C 29.754064 52.471078 33.215824 56.261393 37.804688 57.201172 C 38.413285 57.674649 39.161386 58 40 58 C 40.838614 58 41.586715 57.674649 42.195312 57.201172 C 46.784442 56.262297 50.245943 52.471164 50.8125 47.763672 C 51.742324 47.48714 52.5 46.762636 52.5 45.75 C 52.5 45.901527 52.504102 45.7449 52.544922 45.587891 C 52.585792 45.430856 52.648692 45.219898 52.712891 44.992188 C 52.841289 44.536765 53 44.077938 53 43.5 C 53 42.959607 52.804626 42.491818 52.492188 42.113281 C 52.531964 41.731206 53 37.207545 53 34.462891 C 53 31.533077 51.9387 29.34062 50.378906 27.958984 C 48.953934 26.696772 47.176939 26.172927 45.482422 26.080078 C 45.289486 25.734083 45.165572 25.351649 44.365234 24.716797 C 43.249217 23.831537 41.414802 23 38.681641 23 z M 17.5625 24 A 1 1 0 0 0 16.712891 24.443359 A 1 1 0 0 0 16.988281 25.830078 A 1 1 0 0 0 18.375 25.554688 A 1 1 0 0 0 18.099609 24.167969 A 1 1 0 0 0 17.5625 24 z M 38.681641 25 C 41.02048 25 42.346111 25.668463 43.121094 26.283203 C 43.896076 26.897944 44.076172 27.382814 44.076172 27.382812 L 44.332031 28 L 45 28 C 46.407243 28 47.922528 28.455916 49.052734 29.457031 C 50.182941 30.458146 51 31.997704 51 34.462891 C 51 35.101771 50.968823 35.892547 50.921875 36.716797 C 50.600278 34.365362 49.29749 32.727233 48.03125 31.738281 C 46.573296 30.599599 45.095703 30.201172 45.095703 30.201172 L 44.388672 30.009766 L 43.992188 30.625 C 43.992188 30.625 43.785081 31.006726 42.826172 31.542969 C 41.867262 32.079212 40.21694 32.666016 37.5 32.666016 C 35.957767 32.666016 33.959333 33.205225 32.212891 34.425781 C 30.759807 35.441315 29.512905 37.01489 29.130859 39.076172 C 29.057626 38.335999 29 37.53922 29 36.679688 C 29 34.494515 28.096881 33.003619 27.175781 32.158203 C 26.90356 31.908349 26.868134 31.984277 26.611328 31.826172 C 27.102988 31.257605 27.843133 30.308083 29.765625 28.783203 C 32.196459 26.855118 35.456423 25 38.681641 25 z M 15.070312 28.667969 A 1 1 0 0 0 14.125 29.285156 A 1 1 0 0 0 14.666016 30.591797 A 1 1 0 0 0 15.972656 30.050781 A 1 1 0 0 0 15.431641 28.744141 A 1 1 0 0 0 15.070312 28.667969 z M 44.939453 32.326172 C 45.219676 32.416272 45.861393 32.580778 46.800781 33.314453 C 47.926327 34.19352 49 35.527784 49 37.832031 L 49 43.945312 L 50.492188 43.101562 C 50.523747 43.083712 50.536343 43.079793 50.564453 43.064453 C 50.795792 43.110289 51 43.250051 51 43.5 C 51 43.52606 50.90871 44.017891 50.787109 44.449219 C 50.726309 44.664882 50.664208 44.880801 50.611328 45.083984 C 50.558448 45.287168 50.5 45.423973 50.5 45.75 C 50.5 45.898937 50.398937 46 50.25 46 L 49.027344 46 L 48.976562 46.947266 C 48.756648 51.166193 45.646536 54.600842 41.587891 55.324219 L 41.304688 55.375 L 41.091797 55.570312 C 40.794402 55.840961 40.42198 56 40 56 C 39.57802 56 39.205598 55.840961 38.908203 55.570312 L 38.695312 55.375 L 38.412109 55.324219 C 34.353163 54.599889 31.243351 51.166186 31.023438 46.947266 L 30.972656 46 L 29.75 46 C 29.601063 46 29.5 45.898937 29.5 45.75 C 29.5 45.423973 29.44155 45.287168 29.388672 45.083984 C 29.335792 44.880801 29.273692 44.664882 29.212891 44.449219 C 29.091287 44.017891 29 43.526062 29 43.5 C 29 43.250051 29.204203 43.110288 29.435547 43.064453 C 29.463647 43.079783 29.476243 43.083712 29.507812 43.101562 L 31 43.945312 L 31 40.376953 C 31 38.355156 31.997114 37.015147 33.357422 36.064453 C 34.71773 35.113759 36.469233 34.666016 37.5 34.666016 C 40.50806 34.666016 42.524441 34.00282 43.800781 33.289062 C 44.577082 32.85494 44.647469 32.64443 44.939453 32.326172 z M 13.539062 33.732422 A 1 1 0 0 0 12.53125 34.537109 A 1 1 0 0 0 13.318359 35.712891 A 1 1 0 0 0 14.494141 34.927734 A 1 1 0 0 0 13.708984 33.751953 A 1 1 0 0 0 13.539062 33.732422 z M 12.992188 39 A 1 1 0 0 0 11.992188 40 A 1 1 0 0 0 12.992188 41 A 1 1 0 0 0 13.992188 40 A 1 1 0 0 0 12.992188 39 z M 66.992188 39 A 1 1 0 0 0 65.992188 40 A 1 1 0 0 0 66.992188 41 A 1 1 0 0 0 67.992188 40 A 1 1 0 0 0 66.992188 39 z M 35 43 A 1 1 0 0 0 34 44 A 1 1 0 0 0 35 45 A 1 1 0 0 0 36 44 A 1 1 0 0 0 35 43 z M 45 43 A 1 1 0 0 0 44 44 A 1 1 0 0 0 45 45 A 1 1 0 0 0 46 44 A 1 1 0 0 0 45 43 z M 13.515625 44.267578 A 1 1 0 0 0 13.318359 44.287109 A 1 1 0 0 0 12.53125 45.462891 A 1 1 0 0 0 13.707031 46.248047 A 1 1 0 0 0 14.494141 45.072266 A 1 1 0 0 0 13.515625 44.267578 z M 66.501953 44.267578 A 1 1 0 0 0 65.494141 45.072266 A 1 1 0 0 0 66.28125 46.248047 A 1 1 0 0 0 67.457031 45.462891 A 1 1 0 0 0 66.669922 44.287109 A 1 1 0 0 0 66.501953 44.267578 z M 64.960938 49.330078 A 1 1 0 0 0 64.013672 49.947266 A 1 1 0 0 0 64.554688 51.253906 A 1 1 0 0 0 65.861328 50.712891 A 1 1 0 0 0 65.320312 49.40625 A 1 1 0 0 0 64.960938 49.330078 z M 15.056641 49.332031 A 1 1 0 0 0 14.666016 49.408203 A 1 1 0 0 0 14.125 50.714844 A 1 1 0 0 0 15.431641 51.255859 A 1 1 0 0 0 15.972656 49.949219 A 1 1 0 0 0 15.056641 49.332031 z M 62.460938 53.996094 A 1 1 0 0 0 61.611328 54.441406 A 1 1 0 0 0 61.888672 55.828125 A 1 1 0 0 0 63.275391 55.552734 A 1 1 0 0 0 62.998047 54.166016 A 1 1 0 0 0 62.460938 53.996094 z M 17.554688 54 A 1 1 0 0 0 16.988281 54.167969 A 1 1 0 0 0 16.712891 55.554688 A 1 1 0 0 0 18.099609 55.830078 A 1 1 0 0 0 18.375 54.443359 A 1 1 0 0 0 17.554688 54 z M 20.916016 58.091797 A 1 1 0 0 0 20.193359 58.384766 A 1 1 0 0 0 20.193359 59.798828 A 1 1 0 0 0 21.607422 59.798828 A 1 1 0 0 0 21.607422 58.384766 A 1 1 0 0 0 20.916016 58.091797 z M 59.099609 58.091797 A 1 1 0 0 0 58.376953 58.384766 A 1 1 0 0 0 58.376953 59.798828 A 1 1 0 0 0 59.791016 59.798828 A 1 1 0 0 0 59.791016 58.384766 A 1 1 0 0 0 59.099609 58.091797 z M 25.013672 61.447266 A 1 1 0 0 0 24.164062 61.892578 A 1 1 0 0 0 24.439453 63.279297 A 1 1 0 0 0 25.826172 63.003906 A 1 1 0 0 0 25.550781 61.617188 A 1 1 0 0 0 25.013672 61.447266 z M 55.005859 61.447266 A 1 1 0 0 0 54.439453 61.615234 A 1 1 0 0 0 54.164062 63.001953 A 1 1 0 0 0 55.550781 63.279297 A 1 1 0 0 0 55.826172 61.892578 A 1 1 0 0 0 55.005859 61.447266 z M 29.683594 63.943359 A 1 1 0 0 0 28.738281 64.560547 A 1 1 0 0 0 29.279297 65.867188 A 1 1 0 0 0 30.585938 65.326172 A 1 1 0 0 0 30.044922 64.019531 A 1 1 0 0 0 29.683594 63.943359 z M 50.333984 63.943359 A 1 1 0 0 0 49.943359 64.019531 A 1 1 0 0 0 49.402344 65.326172 A 1 1 0 0 0 50.708984 65.867188 A 1 1 0 0 0 51.25 64.560547 A 1 1 0 0 0 50.333984 63.943359 z M 34.751953 65.480469 A 1 1 0 0 0 33.746094 66.285156 A 1 1 0 0 0 34.53125 67.460938 A 1 1 0 0 0 35.707031 66.675781 A 1 1 0 0 0 34.921875 65.5 A 1 1 0 0 0 34.751953 65.480469 z M 45.265625 65.482422 A 1 1 0 0 0 45.066406 65.5 A 1 1 0 0 0 44.28125 66.675781 A 1 1 0 0 0 45.457031 67.462891 A 1 1 0 0 0 46.242188 66.287109 A 1 1 0 0 0 45.265625 65.482422 z M 39.992188 66 A 1 1 0 0 0 38.992188 67 A 1 1 0 0 0 39.992188 68 A 1 1 0 0 0 40.992188 67 A 1 1 0 0 0 39.992188 66 z"/>
</svg>
