<svg xmlns="http://www.w3.org/2000/svg" viewBox="0 0 80 80">
    <path d="M 40 7 C 21.804 7 7 21.804 7 40 C 7 58.196 21.804 73 40 73 C 58.196 73 73 58.196 73 40 C 73 34.418 71.601531 29.158922 69.144531 24.544922 L 67.648438 26.007812 C 69.786438 30.214813 71 34.967 71 40 C 71 57.093 57.094 71 40 71 C 22.906 71 9 57.093 9 40 C 9 22.907 22.906 9 40 9 C 48.788 9 56.727047 12.681172 62.373047 18.576172 L 63.802734 17.179688 C 57.792734 10.913688 49.347 7 40 7 z M 40 12 A 1 1 0 0 0 39 13 A 1 1 0 0 0 40 14 A 1 1 0 0 0 41 13 A 1 1 0 0 0 40 12 z M 45.292969 12.517578 A 1 1 0 0 0 44.287109 13.322266 A 1 1 0 0 0 45.072266 14.498047 A 1 1 0 0 0 46.248047 13.712891 A 1 1 0 0 0 45.462891 12.537109 A 1 1 0 0 0 45.292969 12.517578 z M 34.738281 12.519531 A 1 1 0 0 0 34.539062 12.537109 A 1 1 0 0 0 33.753906 13.712891 A 1 1 0 0 0 34.929688 14.5 A 1 1 0 0 0 35.714844 13.324219 A 1 1 0 0 0 34.738281 12.519531 z M 29.675781 14.054688 A 1 1 0 0 0 29.285156 14.130859 A 1 1 0 0 0 28.744141 15.4375 A 1 1 0 0 0 30.050781 15.978516 A 1 1 0 0 0 30.591797 14.671875 A 1 1 0 0 0 29.675781 14.054688 z M 50.353516 14.054688 A 1 1 0 0 0 49.408203 14.671875 A 1 1 0 0 0 49.949219 15.978516 A 1 1 0 0 0 51.255859 15.4375 A 1 1 0 0 0 50.714844 14.130859 A 1 1 0 0 0 50.353516 14.054688 z M 25.009766 16.548828 A 1 1 0 0 0 24.443359 16.716797 A 1 1 0 0 0 24.167969 18.103516 A 1 1 0 0 0 25.554688 18.380859 A 1 1 0 0 0 25.832031 16.994141 A 1 1 0 0 0 25.009766 16.548828 z M 55.017578 16.548828 A 1 1 0 0 0 54.167969 16.994141 A 1 1 0 0 0 54.443359 18.380859 A 1 1 0 0 0 55.830078 18.105469 A 1 1 0 0 0 55.554688 16.716797 A 1 1 0 0 0 55.017578 16.548828 z M 68.113281 17.15625 L 37.859375 46.777344 L 27.035156 35.722656 L 24.892578 37.822266 L 37.814453 51.019531 L 70.212891 19.300781 L 68.113281 17.15625 z M 20.921875 19.908203 A 1 1 0 0 0 20.201172 20.201172 A 1 1 0 0 0 20.201172 21.615234 A 1 1 0 0 0 21.615234 21.615234 A 1 1 0 0 0 21.615234 20.201172 A 1 1 0 0 0 20.921875 19.908203 z M 59.105469 19.908203 A 1 1 0 0 0 58.384766 20.201172 A 1 1 0 0 0 58.384766 21.615234 A 1 1 0 0 0 59.798828 21.615234 A 1 1 0 0 0 59.798828 20.201172 A 1 1 0 0 0 59.105469 19.908203 z M 17.568359 24 A 1 1 0 0 0 16.71875 24.443359 A 1 1 0 0 0 16.996094 25.830078 A 1 1 0 0 0 18.382812 25.554688 A 1 1 0 0 0 18.105469 24.167969 A 1 1 0 0 0 17.568359 24 z M 64.953125 28.666016 A 1 1 0 0 0 64.5625 28.742188 A 1 1 0 0 0 64.021484 30.048828 A 1 1 0 0 0 65.328125 30.589844 A 1 1 0 0 0 65.869141 29.283203 A 1 1 0 0 0 64.953125 28.666016 z M 15.078125 28.667969 A 1 1 0 0 0 14.132812 29.285156 A 1 1 0 0 0 14.673828 30.591797 A 1 1 0 0 0 15.980469 30.050781 A 1 1 0 0 0 15.439453 28.744141 A 1 1 0 0 0 15.078125 28.667969 z M 66.486328 33.732422 A 1 1 0 0 0 66.287109 33.751953 A 1 1 0 0 0 65.501953 34.927734 A 1 1 0 0 0 66.677734 35.712891 A 1 1 0 0 0 67.462891 34.537109 A 1 1 0 0 0 66.486328 33.732422 z M 13.546875 33.734375 A 1 1 0 0 0 12.539062 34.537109 A 1 1 0 0 0 13.326172 35.714844 A 1 1 0 0 0 14.501953 34.927734 A 1 1 0 0 0 13.716797 33.751953 A 1 1 0 0 0 13.546875 33.734375 z M 13 39 A 1 1 0 0 0 12 40 A 1 1 0 0 0 13 41 A 1 1 0 0 0 14 40 A 1 1 0 0 0 13 39 z M 67 39 A 1 1 0 0 0 66 40 A 1 1 0 0 0 67 41 A 1 1 0 0 0 68 40 A 1 1 0 0 0 67 39 z M 13.523438 44.267578 A 1 1 0 0 0 13.324219 44.287109 A 1 1 0 0 0 12.539062 45.462891 A 1 1 0 0 0 13.714844 46.248047 A 1 1 0 0 0 14.5 45.072266 A 1 1 0 0 0 13.523438 44.267578 z M 66.507812 44.267578 A 1 1 0 0 0 65.501953 45.072266 A 1 1 0 0 0 66.287109 46.248047 A 1 1 0 0 0 67.462891 45.462891 A 1 1 0 0 0 66.677734 44.287109 A 1 1 0 0 0 66.507812 44.267578 z M 64.966797 49.330078 A 1 1 0 0 0 64.021484 49.947266 A 1 1 0 0 0 64.5625 51.253906 A 1 1 0 0 0 65.869141 50.712891 A 1 1 0 0 0 65.328125 49.40625 A 1 1 0 0 0 64.966797 49.330078 z M 15.0625 49.332031 A 1 1 0 0 0 14.673828 49.408203 A 1 1 0 0 0 14.130859 50.714844 A 1 1 0 0 0 15.4375 51.255859 A 1 1 0 0 0 15.980469 49.949219 A 1 1 0 0 0 15.0625 49.332031 z M 62.46875 53.998047 A 1 1 0 0 0 61.619141 54.441406 A 1 1 0 0 0 61.894531 55.828125 A 1 1 0 0 0 63.283203 55.552734 A 1 1 0 0 0 63.005859 54.166016 A 1 1 0 0 0 62.46875 53.998047 z M 17.5625 54 A 1 1 0 0 0 16.996094 54.167969 A 1 1 0 0 0 16.720703 55.554688 A 1 1 0 0 0 18.107422 55.830078 A 1 1 0 0 0 18.382812 54.443359 A 1 1 0 0 0 17.5625 54 z M 20.921875 58.091797 A 1 1 0 0 0 20.201172 58.384766 A 1 1 0 0 0 20.201172 59.798828 A 1 1 0 0 0 21.615234 59.798828 A 1 1 0 0 0 21.615234 58.384766 A 1 1 0 0 0 20.921875 58.091797 z M 59.105469 58.091797 A 1 1 0 0 0 58.384766 58.384766 A 1 1 0 0 0 58.384766 59.798828 A 1 1 0 0 0 59.798828 59.798828 A 1 1 0 0 0 59.798828 58.384766 A 1 1 0 0 0 59.105469 58.091797 z M 25.019531 61.447266 A 1 1 0 0 0 24.169922 61.892578 A 1 1 0 0 0 24.447266 63.279297 A 1 1 0 0 0 25.833984 63.003906 A 1 1 0 0 0 25.558594 61.617188 A 1 1 0 0 0 25.019531 61.447266 z M 55.011719 61.447266 A 1 1 0 0 0 54.445312 61.615234 A 1 1 0 0 0 54.169922 63.003906 A 1 1 0 0 0 55.556641 63.279297 A 1 1 0 0 0 55.833984 61.892578 A 1 1 0 0 0 55.011719 61.447266 z M 29.691406 63.943359 A 1 1 0 0 0 28.746094 64.560547 A 1 1 0 0 0 29.287109 65.867188 A 1 1 0 0 0 30.59375 65.326172 A 1 1 0 0 0 30.052734 64.019531 A 1 1 0 0 0 29.691406 63.943359 z M 50.339844 63.943359 A 1 1 0 0 0 49.951172 64.019531 A 1 1 0 0 0 49.408203 65.326172 A 1 1 0 0 0 50.714844 65.867188 A 1 1 0 0 0 51.257812 64.560547 A 1 1 0 0 0 50.339844 63.943359 z M 34.759766 65.480469 A 1 1 0 0 0 33.753906 66.285156 A 1 1 0 0 0 34.539062 67.460938 A 1 1 0 0 0 35.714844 66.675781 A 1 1 0 0 0 34.929688 65.5 A 1 1 0 0 0 34.759766 65.480469 z M 45.271484 65.482422 A 1 1 0 0 0 45.072266 65.5 A 1 1 0 0 0 44.287109 66.675781 A 1 1 0 0 0 45.462891 67.462891 A 1 1 0 0 0 46.25 66.287109 A 1 1 0 0 0 45.271484 65.482422 z M 40 66 A 1 1 0 0 0 39 67 A 1 1 0 0 0 40 68 A 1 1 0 0 0 41 67 A 1 1 0 0 0 40 66 z"/>
</svg>
