<svg xmlns="http://www.w3.org/2000/svg" version="1.1" xmlns:xlink="http://www.w3.org/1999/xlink" xmlns:svgjs="http://svgjs.dev/svgjs" width="1500" height="367" viewBox="0 0 1500 367"><g transform="matrix(1,0,0,1,-0.9090909090909918,0.32073424823383334)"><svg viewBox="0 0 396 97" data-background-color="#6b3245" preserveAspectRatio="xMidYMid meet" height="367" width="1500" xmlns="http://www.w3.org/2000/svg" xmlns:xlink="http://www.w3.org/1999/xlink"><g id="tight-bounds" transform="matrix(1,0,0,1,0.2400000000000091,-0.08477172228523955)"><svg viewBox="0 0 395.52 97.1695434445705" height="97.1695434445705" width="395.52"><g><svg viewBox="0 0 544.3657372179787 133.73728294988376" height="97.1695434445705" width="395.52"><g transform="matrix(1,0,0,1,0,18.483227961959336)"><svg viewBox="0 0 395.52 96.77082702596509" height="96.77082702596509" width="395.52"><g id="textblocktransform"><svg viewBox="0 0 395.52 96.77082702596509" height="96.77082702596509" width="395.52" id="textblock"><g><svg viewBox="0 0 395.52 63.99826440677967" height="63.99826440677967" width="395.52"><g transform="matrix(1,0,0,1,0,0)"><svg width="395.52" viewBox="0.55 -35.1 221.23 35.800000000000004" height="63.99826440677967" data-palette-color="#fb6968"><path d="M14.05 0.15L11.25 0.15 3.6-20.65Q3.3-21.55 2.78-22.03 2.25-22.5 1.4-22.8L1.4-22.8 0.55-23.05 0.55-24 12.5-24 12.5-23.05 11.7-22.85Q9.8-22.35 10.45-20.45L10.45-20.45 15-6.85 19.2-18 18.45-20.25Q18.1-21.3 17.73-21.9 17.35-22.5 16.65-22.75L16.65-22.75 15.8-23.05 15.8-24 26.1-24 26.1-23.05 25.4-22.8Q24.6-22.5 24.43-21.98 24.25-21.45 24.6-20.45L24.6-20.45 29.05-7.15 33.55-20.4Q34.15-22.35 32.65-22.75L32.65-22.75 31.65-23.05 31.65-24 38.35-24 38.35-23.05 37.25-22.75Q36.4-22.5 35.95-22 35.5-21.5 35.2-20.6L35.2-20.6 28 0.15 25.4 0.15 19.95-15.8 14.05 0.15ZM47.3 0.7L47.3 0.7Q44.45 0.7 42.47-0.93 40.5-2.55 40.5-5.6L40.5-5.6Q40.5-8 42.82-10.03 45.15-12.05 50.15-13L50.15-13Q51-13.2 52.12-13.38 53.25-13.55 54.35-13.75L54.35-13.75 54.35-17.3Q54.35-20.7 53.5-22 52.65-23.3 50.8-23.3L50.8-23.3 50.65-23.3Q49.5-23.3 48.82-22.58 48.15-21.85 47.95-20.2L47.95-20.2 47.8-19.55Q47.65-17.55 46.75-16.63 45.85-15.7 44.5-15.7L44.5-15.7Q43.25-15.7 42.42-16.48 41.6-17.25 41.6-18.5L41.6-18.5Q41.6-20.55 43-21.95 44.4-23.35 46.72-24.05 49.05-24.75 51.75-24.75L51.75-24.75Q56.2-24.75 58.55-22.6 60.9-20.45 60.9-15.6L60.9-15.6 60.9-4.45Q60.9-2.3 62.95-2.3L62.95-2.3 64.1-2.3 64.6-1.75Q63.7-0.6 62.6 0.03 61.5 0.65 59.6 0.65L59.6 0.65Q57.45 0.65 56.17-0.38 54.9-1.4 54.5-3.1L54.5-3.1Q52.9-1.4 51.35-0.35 49.8 0.7 47.3 0.7ZM50.2-2.5L50.2-2.5Q51.2-2.5 52.1-2.95 53-3.4 54.35-4.45L54.35-4.45 54.35-12.45Q53.05-12.25 51.7-11.95L51.7-11.95Q49.55-11.45 48.22-10.1 46.9-8.75 46.9-6.45L46.9-6.45Q46.9-4.45 47.82-3.48 48.75-2.5 50.2-2.5ZM77.5 0L65.85 0 65.85-0.95 66.6-1.15Q68.25-1.7 68.25-3.65L68.25-3.65Q68.25-5.35 68.27-7.08 68.3-8.8 68.3-10.5L68.3-10.5 68.3-29.5Q68.3-30.55 67.95-31.08 67.6-31.6 66.6-31.85L66.6-31.85 65.85-32.05 65.85-33 74.6-35.1 75.25-34.65 75.05-27.6 75.05-3.65Q75.1-2.65 75.47-2.02 75.85-1.4 76.8-1.15L76.8-1.15 77.5-0.95 77.5 0ZM91.49 0L79.84 0 79.84-0.95 80.59-1.15Q82.24-1.7 82.24-3.65L82.24-3.65Q82.24-5.35 82.27-7.08 82.29-8.8 82.29-10.5L82.29-10.5 82.29-29.5Q82.29-30.55 81.94-31.08 81.59-31.6 80.59-31.85L80.59-31.85 79.84-32.05 79.84-33 88.59-35.1 89.24-34.65 89.04-27.6 89.04-3.65Q89.09-2.65 89.47-2.02 89.84-1.4 90.79-1.15L90.79-1.15 91.49-0.95 91.49 0ZM106.74 0.15L103.94 0.15 96.29-20.65Q95.99-21.55 95.47-22.03 94.94-22.5 94.09-22.8L94.09-22.8 93.24-23.05 93.24-24 105.19-24 105.19-23.05 104.39-22.85Q102.49-22.35 103.14-20.45L103.14-20.45 107.69-6.85 111.89-18 111.14-20.25Q110.79-21.3 110.42-21.9 110.04-22.5 109.34-22.75L109.34-22.75 108.49-23.05 108.49-24 118.79-24 118.79-23.05 118.09-22.8Q117.29-22.5 117.12-21.98 116.94-21.45 117.29-20.45L117.29-20.45 121.74-7.15 126.24-20.4Q126.84-22.35 125.34-22.75L125.34-22.75 124.34-23.05 124.34-24 131.04-24 131.04-23.05 129.94-22.75Q129.09-22.5 128.64-22 128.19-21.5 127.89-20.6L127.89-20.6 120.69 0.15 118.09 0.15 112.64-15.8 106.74 0.15ZM145.24 0.7L145.24 0.7Q141.54 0.7 138.76-0.85 135.99-2.4 134.46-5.25 132.94-8.1 132.94-12.05L132.94-12.05Q132.94-16 134.56-18.85 136.19-21.7 138.96-23.23 141.74-24.75 145.24-24.75L145.24-24.75Q148.74-24.75 151.51-23.23 154.29-21.7 155.91-18.88 157.54-16.05 157.54-12.05L157.54-12.05Q157.54-8.1 156.01-5.23 154.49-2.35 151.74-0.83 148.99 0.7 145.24 0.7ZM145.24-0.7L145.24-0.7Q147.04-0.7 148.16-1.68 149.29-2.65 149.79-5.1 150.29-7.55 150.29-11.95L150.29-11.95Q150.29-16.4 149.79-18.88 149.29-21.35 148.16-22.33 147.04-23.3 145.24-23.3L145.24-23.3Q143.44-23.3 142.34-22.33 141.24-21.35 140.71-18.88 140.19-16.4 140.19-11.95L140.19-11.95Q140.19-7.55 140.71-5.1 141.24-2.65 142.34-1.68 143.44-0.7 145.24-0.7ZM172.34 0L159.84 0 159.84-0.95 160.59-1.2Q161.59-1.45 161.96-2.05 162.34-2.65 162.34-3.65L162.34-3.65 162.34-18.3Q162.28-19.4 161.94-19.98 161.59-20.55 160.59-20.75L160.59-20.75 159.84-20.95 159.84-21.85 167.98-24.75 168.59-24.2 169.03-19.8 169.03-19.45Q169.78-20.85 170.94-22.05 172.09-23.25 173.44-24 174.78-24.75 176.13-24.75L176.13-24.75Q178.03-24.75 178.99-23.75 179.94-22.75 179.94-21.2L179.94-21.2Q179.94-19.5 178.99-18.63 178.03-17.75 176.69-17.75L176.69-17.75Q174.69-17.75 173.23-19.55L173.23-19.55 173.13-19.65Q172.63-20.25 172.01-20.33 171.38-20.4 170.78-19.7L170.78-19.7Q170.28-19.2 169.86-18.53 169.44-17.85 169.09-16.95L169.09-16.95 169.09-3.85Q169.09-2.9 169.48-2.27 169.88-1.65 170.84-1.4L170.84-1.4 172.34-0.95 172.34 0ZM193.33 0L181.68 0 181.68-0.95 182.43-1.15Q184.08-1.7 184.08-3.65L184.08-3.65Q184.08-5.35 184.11-7.08 184.13-8.8 184.13-10.5L184.13-10.5 184.13-29.5Q184.13-30.55 183.78-31.08 183.43-31.6 182.43-31.85L182.43-31.85 181.68-32.05 181.68-33 190.43-35.1 191.08-34.65 190.88-27.6 190.88-3.65Q190.93-2.65 191.31-2.02 191.68-1.4 192.63-1.15L192.63-1.15 193.33-0.95 193.33 0ZM206.08 0.7L206.08 0.7Q203.13 0.7 200.78-0.63 198.43-1.95 197.1-4.73 195.78-7.5 195.78-11.8L195.78-11.8Q195.78-16.1 197.28-18.98 198.78-21.85 201.28-23.3 203.78-24.75 206.78-24.75L206.78-24.75Q208.58-24.75 210.23-24.33 211.88-23.9 213.13-23.05L213.13-23.05 213.13-29.55Q213.13-30.6 212.81-31.08 212.48-31.55 211.48-31.8L211.48-31.8 210.48-32 210.48-32.95 219.18-35.1 219.83-34.65 219.63-27.6 219.63-3.55Q219.63-2.6 219.98-1.98 220.33-1.35 221.23-1.1L221.23-1.1 221.78-0.95 221.78 0 213.48 0.55 213.03-1.55Q211.68-0.5 209.93 0.1 208.18 0.7 206.08 0.7ZM208.83-1.6L208.83-1.6Q210.98-1.6 212.88-3L212.88-3 212.88-21.6Q211.03-22.75 208.88-22.75L208.88-22.75Q206.43-22.75 204.68-20.18 202.93-17.6 202.93-11.9L202.93-11.9Q202.93-6.2 204.58-3.9 206.23-1.6 208.83-1.6Z" opacity="1" transform="matrix(1,0,0,1,0,0)" fill="#fb6968" class="wordmark-text-0" data-fill-palette-color="primary" id="text-0"></path></svg></g></svg></g><g transform="matrix(1,0,0,1,163.31020799999996,79.10671867487459)"><svg viewBox="0 0 232.20979200000002 17.66410835109051" height="17.66410835109051" width="232.20979200000002"><g transform="matrix(1,0,0,1,0,0)"><svg width="232.20979200000002" viewBox="2 -37.55 657.88 50.05" height="17.66410835109051" data-palette-color="#fb6968"><path d="M12.55 0L2 0.05 2.05-0.65 4.65-1Q5.1-1.05 5.1-1.7L5.1-1.7 5.1-24.1 2.55-24.1 2.95-24.5 5.1-24.95 5.1-31.05Q5.1-34.5 7.35-36.02 9.6-37.55 12.6-37.55L12.6-37.55Q14.6-37.55 16-37L16-37 15.85-36.65Q14.65-36.8 13.78-36.8 12.9-36.8 12.08-36.55 11.25-36.3 10.35-35.65L10.35-35.65Q8.35-34.2 8.35-29.9L8.35-29.9 8.35-25 14.4-25 14.4-24.1 8.35-24.1 8.35-1 12.6-0.75Q12.6-0.7 12.55 0L12.55 0ZM24.55-22.95L24.55-22.95 24.55-1 28.3-0.75Q28.3-0.7 28.25 0L28.25 0 18.25 0.05Q18.25-0.4 18.3-0.65L18.3-0.65 20.9-1Q21.2-1 21.3-1.45L21.3-1.45 21.3-23.4Q21.2-23.75 21-23.75L21-23.75 18-23.85 18.05-24.55Q20.75-25 22.15-25 23.55-25 24.05-24.35 24.55-23.7 24.55-22.95ZM22.85-31.7Q21.85-31.7 21.3-32.33 20.75-32.95 20.75-33.98 20.75-35 21.32-35.63 21.9-36.25 22.9-36.25 23.9-36.25 24.52-35.63 25.15-35 25.15-33.93 25.15-32.85 24.5-32.27 23.85-31.7 22.85-31.7ZM41.59 0L31.54 0.05 31.59-0.65 34.2-1Q34.64-1.05 34.64-1.7L34.64-1.7 34.64-23.35Q34.55-23.75 34.34-23.75L34.34-23.75 31.29-23.85 31.34-24.55Q34.49-25 35.59-25L35.59-25Q37.59-25 37.84-23.25L37.84-23.25 37.89-23.25 37.89-22.2Q41.99-25 45.74-25.15L45.74-25.15Q49.39-25.15 51.3-23.7L51.3-23.7Q52.14-23.05 52.82-21.68 53.5-20.3 53.5-18.4L53.5-18.4 53.5-1 57.25-0.75Q57.25-0.7 57.2 0L57.2 0 47.2 0.05Q47.2-0.4 47.24-0.65L47.24-0.65 49.84-1Q50.25-1.05 50.25-1.7L50.25-1.7 50.25-17.15Q50.25-19.15 49.72-20.55 49.2-21.95 48.55-22.6 47.89-23.25 46.95-23.6L46.95-23.6Q45.84-24 44.64-24L44.64-24Q41.64-23.95 37.89-21.65L37.89-21.65 37.89-1 41.64-0.75Q41.64-0.7 41.59 0L41.59 0ZM81.44-35.45L81.44-35.45 81.44-2.6Q81.44-1.05 82.24-1.05L82.24-1.05 85.24-0.9 85.19-0.15Q82.79 0.25 80.19 0.25L80.19 0.25Q79.64 0.2 79.02-0.3 78.39-0.8 78.29-1.6L78.29-1.6Q75.44 0.2 71.69 0.2L71.69 0.2Q68.04 0.2 64.94-1.85L64.94-1.85Q63.19-3 62.12-5.48 61.04-7.95 61.04-11.5L61.04-11.5Q61.04-18.05 64.39-21.5L64.39-21.5Q67.94-25.2 72.49-25.2L72.49-25.2Q75.29-25.2 78.19-23.75L78.19-23.75 78.19-35.7Q78.19-36.25 77.89-36.25L77.89-36.25 74.84-36.35 74.89-37.05Q78.04-37.5 79.22-37.5 80.39-37.5 80.92-36.85 81.44-36.2 81.44-35.45ZM72.34-0.7L72.34-0.7Q75.39-0.7 78.19-2.05L78.19-2.05 78.19-22.95Q75.99-24.3 73.84-24.3L73.84-24.3Q69.54-24.3 66.92-21 64.29-17.7 64.29-11.55L64.29-11.55Q64.29-0.7 72.34-0.7ZM120.69-1.9L120.69-1.9 120.54-1.9Q116.04 0.2 111.79 0.2L111.79 0.2Q105.14 0.2 104.74-5.05L104.74-5.05Q104.69-5.4 104.69-5.7L104.69-5.7Q104.69-9.55 109.74-10.85L109.74-10.85Q112.74-11.5 120.54-12.4L120.54-12.4 120.54-16.8Q120.54-18.9 120.04-20.4 119.54-21.9 118.94-22.63 118.34-23.35 117.39-23.75L117.39-23.75Q116.19-24.25 114.71-24.25 113.24-24.25 111.34-23.5L111.34-23.5Q108.59-22.35 106.44-20.6L106.44-20.6 106.24-16.7 105.29-16.45 105.29-22.5 105.79-22.7Q109.69-24.4 111.74-24.75 113.79-25.1 114.74-25.13 115.69-25.15 116.56-25.1 117.44-25.05 118.84-24.65 120.24-24.25 121.26-23.53 122.29-22.8 123.04-21.35 123.79-19.9 123.79-17.9L123.79-17.9 123.79-2.6Q123.79-1.05 124.59-1.05L124.59-1.05 127.64-0.9 127.59-0.15Q124.79 0.25 122.59 0.25L122.59 0.25Q121.99 0.2 121.34-0.38 120.69-0.95 120.69-1.9ZM112.69-0.6L112.69-0.6Q116.39-0.6 120.54-3.2L120.54-3.2 120.54-11.45Q113.04-11.2 111.11-10.58 109.19-9.95 108.46-8.63 107.74-7.3 107.74-6L107.74-6Q107.74-5.75 107.74-5.5L107.74-5.5Q107.89-2.9 109.29-1.75 110.69-0.6 112.69-0.6ZM139.44 0L129.39 0.05 129.44-0.65 132.04-1Q132.49-1.05 132.49-1.7L132.49-1.7 132.49-23.35Q132.39-23.75 132.19-23.75L132.19-23.75 129.14-23.85 129.19-24.55Q132.34-25 133.44-25L133.44-25Q135.44-25 135.69-23.25L135.69-23.25 135.74-23.25 135.74-22.2Q139.84-25 143.59-25.15L143.59-25.15Q147.24-25.15 149.14-23.7L149.14-23.7Q149.99-23.05 150.66-21.68 151.34-20.3 151.34-18.4L151.34-18.4 151.34-1 155.09-0.75Q155.09-0.7 155.04 0L155.04 0 145.04 0.05Q145.04-0.4 145.09-0.65L145.09-0.65 147.69-1Q148.09-1.05 148.09-1.7L148.09-1.7 148.09-17.15Q148.09-19.15 147.56-20.55 147.04-21.95 146.39-22.6 145.74-23.25 144.79-23.6L144.79-23.6Q143.69-24 142.49-24L142.49-24Q139.49-23.95 135.74-21.65L135.74-21.65 135.74-1 139.49-0.75Q139.49-0.7 139.44 0L139.44 0ZM173.03 12.45L162.48 12.5 162.38 11.8 167.03 11.2Q167.38 11.15 167.48 10.5L167.48 10.5 169.13 0 167.48 0 159.13-23.25 159.08-23.3Q158.83-23.9 158.28-24L158.28-24 156.03-24.2Q155.98-24.5 155.98-24.95L155.98-24.95 166.48-25Q166.48-24.95 166.53-24.25L166.53-24.25 162.63-23.95 170.03-1.3 179.33-23.3Q179.48-23.6 179.16-23.8 178.83-24 178.48-24.05L178.48-24.05 176.28-24.2Q176.23-24.5 176.23-24.95L176.23-24.95 185.38-25Q185.38-24.95 185.43-24.25L185.43-24.25 180.98-23.8 170.48 0 168.58 11.45 172.93 11.7Q173.03 12.4 173.03 12.45L173.03 12.45ZM236.73-24.95L246.73-25Q246.73-24.95 246.78-24.25L246.78-24.25 243.88-23.95 242.08-23.55 233.13 0 230.13 0 224.28-19.8 217.53 0 214.53 0 206.73-23.35Q206.43-23.9 205.98-23.95L205.98-23.95 203.38-24.2Q203.33-24.5 203.33-24.95L203.33-24.95 213.83-25Q213.83-24.95 213.88-24.25L213.88-24.25 210.28-24 217.03-1.6 224.33-24.75 226.03-25 232.38-0.8 240.23-23.2Q240.38-23.5 240.08-23.7 239.78-23.9 239.38-23.95L239.38-23.95 236.78-24.2Q236.73-24.5 236.73-24.95L236.73-24.95ZM263.18-1.9L263.18-1.9 263.03-1.9Q258.53 0.2 254.28 0.2L254.28 0.2Q247.63 0.2 247.23-5.05L247.23-5.05Q247.18-5.4 247.18-5.7L247.18-5.7Q247.18-9.55 252.23-10.85L252.23-10.85Q255.23-11.5 263.03-12.4L263.03-12.4 263.03-16.8Q263.03-18.9 262.53-20.4 262.03-21.9 261.43-22.63 260.83-23.35 259.88-23.75L259.88-23.75Q258.68-24.25 257.2-24.25 255.73-24.25 253.83-23.5L253.83-23.5Q251.08-22.35 248.93-20.6L248.93-20.6 248.73-16.7 247.78-16.45 247.78-22.5 248.28-22.7Q252.18-24.4 254.23-24.75 256.28-25.1 257.23-25.13 258.18-25.15 259.05-25.1 259.93-25.05 261.33-24.65 262.73-24.25 263.75-23.53 264.78-22.8 265.53-21.35 266.28-19.9 266.28-17.9L266.28-17.9 266.28-2.6Q266.28-1.05 267.08-1.05L267.08-1.05 270.13-0.9 270.08-0.15Q267.28 0.25 265.08 0.25L265.08 0.25Q264.48 0.2 263.83-0.38 263.18-0.95 263.18-1.9ZM255.18-0.6L255.18-0.6Q258.88-0.6 263.03-3.2L263.03-3.2 263.03-11.45Q255.53-11.2 253.6-10.58 251.68-9.95 250.95-8.63 250.23-7.3 250.23-6L250.23-6Q250.23-5.75 250.23-5.5L250.23-5.5Q250.38-2.9 251.78-1.75 253.18-0.6 255.18-0.6ZM282.42 0L272.37 0.05 272.42-0.65 275.02-1Q275.37-1.05 275.47-1.5L275.47-1.5 275.47-35.7Q275.47-36.25 275.17-36.25L275.17-36.25 272.12-36.35 272.17-37.05Q275.32-37.5 276.5-37.5 277.67-37.5 278.2-36.85 278.72-36.2 278.72-35.45L278.72-35.45 278.72-1 282.47-0.75Q282.47-0.7 282.42 0L282.42 0ZM295.77 0L285.72 0.05 285.77-0.65 288.37-1Q288.72-1.05 288.82-1.5L288.82-1.5 288.82-35.7Q288.82-36.25 288.52-36.25L288.52-36.25 285.47-36.35 285.52-37.05Q288.67-37.5 289.85-37.5 291.02-37.5 291.55-36.85 292.07-36.2 292.07-35.45L292.07-35.45 292.07-1 295.82-0.75Q295.82-0.7 295.77 0L295.77 0ZM309.62 12.45L299.07 12.5 299.12 11.8 301.72 11.45Q302.17 11.4 302.17 10.75L302.17 10.75 302.17-23.35Q302.07-23.75 301.87-23.75L301.87-23.75 298.82-23.85 298.87-24.55Q302.02-25 303.17-25 304.32-25 304.82-24.43 305.32-23.85 305.42-23.15L305.42-23.15Q308.57-25.45 312.12-25.45L312.12-25.45Q315.52-25.45 318.52-23.35L318.52-23.35Q320.12-22.2 321.09-19.75 322.07-17.3 322.07-13.8L322.07-13.8Q322.07-7.15 318.77-3.8L318.77-3.8Q315.02 0 309.07 0L309.07 0Q307.32 0 305.42-0.25L305.42-0.25 305.42 11.45 309.67 11.7Q309.62 12.4 309.62 12.45L309.62 12.45ZM305.42-22.15L305.42-22.15 305.42-1.3Q306.87-0.95 308.57-0.95L308.57-0.95Q313.47-0.95 316.14-4.28 318.82-7.6 318.82-13.55L318.82-13.55Q318.82-20.35 316.12-22.7L316.12-22.7Q314.02-24.55 311.42-24.55 308.82-24.55 305.42-22.15ZM341.82-1.9L341.82-1.9 341.67-1.9Q337.17 0.2 332.92 0.2L332.92 0.2Q326.27 0.2 325.87-5.05L325.87-5.05Q325.82-5.4 325.82-5.7L325.82-5.7Q325.82-9.55 330.87-10.85L330.87-10.85Q333.87-11.5 341.67-12.4L341.67-12.4 341.67-16.8Q341.67-18.9 341.17-20.4 340.67-21.9 340.07-22.63 339.47-23.35 338.52-23.75L338.52-23.75Q337.32-24.25 335.84-24.25 334.37-24.25 332.47-23.5L332.47-23.5Q329.72-22.35 327.57-20.6L327.57-20.6 327.37-16.7 326.42-16.45 326.42-22.5 326.92-22.7Q330.82-24.4 332.87-24.75 334.92-25.1 335.87-25.13 336.82-25.15 337.69-25.1 338.57-25.05 339.97-24.65 341.37-24.25 342.39-23.53 343.42-22.8 344.17-21.35 344.92-19.9 344.92-17.9L344.92-17.9 344.92-2.6Q344.92-1.05 345.72-1.05L345.72-1.05 348.77-0.9 348.72-0.15Q345.92 0.25 343.72 0.25L343.72 0.25Q343.12 0.2 342.47-0.38 341.82-0.95 341.82-1.9ZM333.82-0.6L333.82-0.6Q337.52-0.6 341.67-3.2L341.67-3.2 341.67-11.45Q334.17-11.2 332.24-10.58 330.32-9.95 329.59-8.63 328.87-7.3 328.87-6L328.87-6Q328.87-5.75 328.87-5.5L328.87-5.5Q329.02-2.9 330.42-1.75 331.82-0.6 333.82-0.6ZM361.56 12.45L351.01 12.5 351.06 11.8 353.66 11.45Q354.11 11.4 354.11 10.75L354.11 10.75 354.11-23.35Q354.01-23.75 353.81-23.75L353.81-23.75 350.76-23.85 350.81-24.55Q353.96-25 355.11-25 356.26-25 356.76-24.43 357.26-23.85 357.36-23.15L357.36-23.15Q360.51-25.45 364.06-25.45L364.06-25.45Q367.46-25.45 370.46-23.35L370.46-23.35Q372.06-22.2 373.04-19.75 374.01-17.3 374.01-13.8L374.01-13.8Q374.01-7.15 370.71-3.8L370.71-3.8Q366.96 0 361.01 0L361.01 0Q359.26 0 357.36-0.25L357.36-0.25 357.36 11.45 361.61 11.7Q361.56 12.4 361.56 12.45L361.56 12.45ZM357.36-22.15L357.36-22.15 357.36-1.3Q358.81-0.95 360.51-0.95L360.51-0.95Q365.41-0.95 368.09-4.28 370.76-7.6 370.76-13.55L370.76-13.55Q370.76-20.35 368.06-22.7L368.06-22.7Q365.96-24.55 363.36-24.55 360.76-24.55 357.36-22.15ZM381.26-11.5L381.26-11.5Q381.26-0.7 389.66-0.7L389.66-0.7Q391.86-0.7 394.36-1.18 396.86-1.65 397.56-2.05L397.56-2.05 397.91-1.55Q396.76-0.8 394.14-0.3 391.51 0.2 389.34 0.2 387.16 0.2 385.44-0.25 383.71-0.7 381.91-1.85 380.11-3 379.06-5.45 378.01-7.9 378.01-11.45L378.01-11.45Q378.01-18.05 381.41-21.55L381.41-21.55Q384.96-25.2 389.66-25.2 394.36-25.2 396.84-22.6 399.31-20 399.31-15.3L399.31-15.3Q399.31-14.3 399.16-13.15L399.16-13.15 381.31-13.15Q381.26-12.6 381.26-11.5ZM396.36-15.65L396.36-15.65Q396.36-19.4 394.71-21.78 393.06-24.15 390.21-24.15L390.21-24.15Q386.51-24.15 383.96-20.9L383.96-20.9Q381.91-18.35 381.41-14.1L381.41-14.1 396.31-14.1Q396.36-14.65 396.36-15.65ZM409.11-22.95L409.11-22.95 409.11-18.95Q413.06-24.75 416.86-24.85L416.86-24.85Q417.16-24.85 417.46-24.85L417.46-24.85 420.26-24.5 418.96-21.5Q418.01-22.45 416.51-22.45L416.51-22.45Q412.86-22.4 409.11-17.6L409.11-17.6 409.11-1 413.36-0.75Q413.36-0.7 413.31 0L413.31 0 402.81 0.05Q402.81-0.4 402.86-0.65L402.86-0.65 405.46-1Q405.86-1.05 405.86-1.7L405.86-1.7 405.86-23.4Q405.76-23.75 405.56-23.75L405.56-23.75 402.56-23.85 402.61-24.55Q405.31-25 406.71-25 408.11-25 408.61-24.35 409.11-23.7 409.11-22.95ZM450.6-0.95L450.6-0.95 452.55-1.05 452.7-0.55Q452.65-0.55 452-0.4L452-0.4Q450.5-0.05 448.65-0.05L448.65-0.05Q446.95-0.15 445.55-0.63 444.15-1.1 442.95-2.63 441.75-4.15 441.75-6.55L441.75-6.55 441.75-24.1 439.2-24.1 439.6-24.5 441.8-24.95 442.2-29.75 445-30 445-25 451.05-25 451.05-24.1 445-24.1 445-7.4Q445-3.6 446.6-2.27 448.2-0.95 450.6-0.95ZM461.75-35.45L461.75-35.45 461.75-21.9Q468.3-26.4 473.6-24.7L473.6-24.7Q474.8-24.35 475.68-23.68 476.55-23 477.2-21.65 477.85-20.3 477.85-18.4L477.85-18.4 477.85-1 481.6-0.75Q481.6-0.7 481.55 0L481.55 0 471.55 0.05Q471.55-0.4 471.6-0.65L471.6-0.65 474.2-1Q474.5-1 474.6-1.45L474.6-1.45 474.6-17.1Q474.6-19.05 474.08-20.48 473.55-21.9 472.85-22.55 472.15-23.2 471.2-23.55L471.2-23.55Q469.9-24.05 468.9-23.95L468.9-23.95Q465.65-23.85 461.75-21.3L461.75-21.3 461.75-1 465.5-0.75Q465.5-0.7 465.45 0L465.45 0 455.45 0.05Q455.45-0.4 455.5-0.65L455.5-0.65 458.1-1Q458.5-1.05 458.5-1.7L458.5-1.7 458.5-35.7Q458.5-36.25 458.2-36.25L458.2-36.25 455.2-36.35 455.25-37.05Q457.95-37.5 459.35-37.5 460.75-37.5 461.25-36.85 461.75-36.2 461.75-35.45ZM499.6-1.9L499.6-1.9 499.45-1.9Q494.95 0.2 490.7 0.2L490.7 0.2Q484.05 0.2 483.65-5.05L483.65-5.05Q483.6-5.4 483.6-5.7L483.6-5.7Q483.6-9.55 488.65-10.85L488.65-10.85Q491.65-11.5 499.45-12.4L499.45-12.4 499.45-16.8Q499.45-18.9 498.95-20.4 498.45-21.9 497.85-22.63 497.25-23.35 496.3-23.75L496.3-23.75Q495.1-24.25 493.62-24.25 492.15-24.25 490.25-23.5L490.25-23.5Q487.5-22.35 485.35-20.6L485.35-20.6 485.15-16.7 484.2-16.45 484.2-22.5 484.7-22.7Q488.6-24.4 490.65-24.75 492.7-25.1 493.65-25.13 494.6-25.15 495.47-25.1 496.35-25.05 497.75-24.65 499.15-24.25 500.17-23.53 501.2-22.8 501.95-21.35 502.7-19.9 502.7-17.9L502.7-17.9 502.7-2.6Q502.7-1.05 503.5-1.05L503.5-1.05 506.55-0.9 506.5-0.15Q503.7 0.25 501.5 0.25L501.5 0.25Q500.9 0.2 500.25-0.38 499.6-0.95 499.6-1.9ZM491.6-0.6L491.6-0.6Q495.3-0.6 499.45-3.2L499.45-3.2 499.45-11.45Q491.95-11.2 490.02-10.58 488.1-9.95 487.37-8.63 486.65-7.3 486.65-6L486.65-6Q486.65-5.75 486.65-5.5L486.65-5.5Q486.8-2.9 488.2-1.75 489.6-0.6 491.6-0.6ZM518.95-0.95L518.95-0.95 520.9-1.05 521.05-0.55Q521-0.55 520.35-0.4L520.35-0.4Q518.85-0.05 517-0.05L517-0.05Q515.3-0.15 513.9-0.63 512.5-1.1 511.3-2.63 510.1-4.15 510.1-6.55L510.1-6.55 510.1-24.1 507.55-24.1 507.95-24.5 510.15-24.95 510.55-29.75 513.35-30 513.35-25 519.4-25 519.4-24.1 513.35-24.1 513.35-7.4Q513.35-3.6 514.95-2.27 516.55-0.95 518.95-0.95ZM543.49-11.5L543.49-11.5Q543.49-0.7 551.89-0.7L551.89-0.7Q554.09-0.7 556.59-1.18 559.09-1.65 559.79-2.05L559.79-2.05 560.14-1.55Q558.99-0.8 556.37-0.3 553.74 0.2 551.57 0.2 549.39 0.2 547.66-0.25 545.94-0.7 544.14-1.85 542.34-3 541.29-5.45 540.24-7.9 540.24-11.45L540.24-11.45Q540.24-18.05 543.64-21.55L543.64-21.55Q547.19-25.2 551.89-25.2 556.59-25.2 559.07-22.6 561.54-20 561.54-15.3L561.54-15.3Q561.54-14.3 561.39-13.15L561.39-13.15 543.54-13.15Q543.49-12.6 543.49-11.5ZM558.59-15.65L558.59-15.65Q558.59-19.4 556.94-21.78 555.29-24.15 552.44-24.15L552.44-24.15Q548.74-24.15 546.19-20.9L546.19-20.9Q544.14-18.35 543.64-14.1L543.64-14.1 558.54-14.1Q558.59-14.65 558.59-15.65ZM584.89-24.95L588.24-25Q588.24-24.95 588.29-24.25L588.29-24.25 586.09-24 578.54-12.5 586.49-0.9 589.19-0.75Q589.19-0.7 589.14 0L589.14 0 578.39 0.05Q578.39-0.4 578.44-0.65L578.44-0.65 581.59-1.05Q581.89-1.1 582.01-1.33 582.14-1.55 581.99-1.75L581.99-1.75 575.99-11.05 568.94 0 564.14 0.05 564.09-0.7 567.89-1.05 575.19-12.2 574.59-13.2 566.84-24.75 570.84-24.75 571.34-23.95 567.89-23.2Q567.34-23.9 567.04-23.95L567.04-23.95 565.09-24.2Q565.04-24.5 565.04-24.95L565.04-24.95 575.54-25Q575.54-24.95 575.59-24.25L575.59-24.25 571.34-23.95 577.74-13.7 584.89-24.95ZM599.23-22.95L599.23-22.95 599.23-1 602.98-0.75Q602.98-0.7 602.93 0L602.93 0 592.93 0.05Q592.93-0.4 592.98-0.65L592.98-0.65 595.58-1Q595.88-1 595.98-1.45L595.98-1.45 595.98-23.4Q595.88-23.75 595.68-23.75L595.68-23.75 592.68-23.85 592.73-24.55Q595.43-25 596.83-25 598.23-25 598.73-24.35 599.23-23.7 599.23-22.95ZM597.53-31.7Q596.53-31.7 595.98-32.33 595.43-32.95 595.43-33.98 595.43-35 596.01-35.63 596.58-36.25 597.58-36.25 598.58-36.25 599.21-35.63 599.83-35 599.83-33.93 599.83-32.85 599.18-32.27 598.53-31.7 597.53-31.7ZM613.33-0.6L613.33-0.6Q613.63-0.6 613.93-0.65L613.93-0.65Q616.53-0.7 618.28-2.27 620.03-3.85 620.03-6.9L620.03-6.9Q620.03-9.9 615.33-11.25L615.33-11.25Q613.38-11.8 611.43-12.45 609.48-13.1 608.11-14.5 606.73-15.9 606.73-18.15L606.73-18.15Q606.73-21.35 609.18-23.28 611.63-25.2 615.38-25.2L615.38-25.2Q618.18-25.2 621.03-24.2L621.03-24.2 621.93-23.85 621.93-18.1 620.98-17.75 620.78-22Q617.88-24.3 615.93-24.3L615.93-24.3Q613.18-24.3 611.58-22.68 609.98-21.05 609.98-18.35L609.98-18.35Q609.98-16.8 611.36-15.85 612.73-14.9 614.68-14.35 616.63-13.8 618.58-13.13 620.53-12.45 621.91-10.93 623.28-9.4 623.28-6.95L623.28-6.95Q623.28-3.65 620.81-1.73 618.33 0.2 613.78 0.2 609.23 0.2 606.23-1.95L606.23-1.95 606.23-7.7 607.13-8.05 607.38-3.8Q608.08-2.5 609.91-1.55 611.73-0.6 613.33-0.6ZM637.58-0.95L637.58-0.95 639.53-1.05 639.68-0.55Q639.63-0.55 638.98-0.4L638.98-0.4Q637.48-0.05 635.63-0.05L635.63-0.05Q633.93-0.15 632.53-0.63 631.13-1.1 629.93-2.63 628.73-4.15 628.73-6.55L628.73-6.55 628.73-24.1 626.18-24.1 626.58-24.5 628.78-24.95 629.18-29.75 631.98-30 631.98-25 638.03-25 638.03-24.1 631.98-24.1 631.98-7.4Q631.98-3.6 633.58-2.27 635.18-0.95 637.58-0.95ZM649.93-0.6L649.93-0.6Q650.23-0.6 650.53-0.65L650.53-0.65Q653.13-0.7 654.88-2.27 656.63-3.85 656.63-6.9L656.63-6.9Q656.63-9.9 651.93-11.25L651.93-11.25Q649.98-11.8 648.03-12.45 646.08-13.1 644.7-14.5 643.33-15.9 643.33-18.15L643.33-18.15Q643.33-21.35 645.78-23.28 648.23-25.2 651.98-25.2L651.98-25.2Q654.78-25.2 657.63-24.2L657.63-24.2 658.53-23.85 658.53-18.1 657.58-17.75 657.38-22Q654.48-24.3 652.53-24.3L652.53-24.3Q649.78-24.3 648.18-22.68 646.58-21.05 646.58-18.35L646.58-18.35Q646.58-16.8 647.95-15.85 649.33-14.9 651.28-14.35 653.23-13.8 655.18-13.13 657.13-12.45 658.5-10.93 659.88-9.4 659.88-6.95L659.88-6.95Q659.88-3.65 657.4-1.73 654.93 0.2 650.38 0.2 645.83 0.2 642.83-1.95L642.83-1.95 642.83-7.7 643.73-8.05 643.98-3.8Q644.68-2.5 646.5-1.55 648.33-0.6 649.93-0.6Z" opacity="1" transform="matrix(1,0,0,1,0,0)" fill="#fb6968" class="slogan-text-1" data-fill-palette-color="secondary" id="text-1"></path></svg></g></svg></g></svg></g></svg></g><g transform="matrix(1,0,0,1,410.6284542680949,0)"><svg viewBox="0 0 133.73728294988376 133.73728294988376" height="133.73728294988376" width="133.73728294988376"><g data-palette-color="#fec3d9"><rect width="36.5548573396349" height="133.73728294988376" fill="#fec3d9" stroke="transparent" data-fill-palette-color="accent" x="0" fill-opacity="1"></rect><rect width="36.5548573396349" height="133.73728294988376" fill="#fec3d9" stroke="transparent" data-fill-palette-color="accent" x="44.57909431662792" fill-opacity="0.75"></rect><rect width="36.5548573396349" height="133.73728294988376" fill="#fec3d9" stroke="transparent" data-fill-palette-color="accent" x="89.15818863325585" fill-opacity="0.5"></rect></g></svg></g></svg></g><defs></defs></svg><rect width="395.52" height="97.1695434445705" fill="none" stroke="none" visibility="hidden"></rect></g></svg></g></svg>