<svg xmlns="http://www.w3.org/2000/svg" viewBox="0 0 80 80">
    <path style="line-height:normal;text-indent:0;text-align:start;text-decoration-line:none;text-decoration-style:solid;text-decoration-color:#000;text-transform:none;block-progression:tb;isolation:auto;mix-blend-mode:normal" d="M 40 8 C 29.518545 8 21 16.518545 21 27 L 21 31 L 14 31 C 12.35503 31 11 32.35503 11 34 L 11 62.416016 C 9.8933056 62.85942 9 63.743378 9 65 L 9 68 C 9 69.64497 10.35503 71 12 71 L 68 71 C 69.64497 71 71 69.64497 71 68 L 71 65 C 71 63.743378 70.106694 62.85942 69 62.416016 L 69 34 C 69 32.35503 67.64497 31 66 31 L 23 31 L 23 27 C 23 17.599455 30.599455 10 40 10 C 47.688988 10 54.169391 15.094542 56.277344 22.082031 L 58.193359 21.503906 C 55.835312 13.687395 48.573012 8 40 8 z M 14 33 L 66 33 C 66.56503 33 67 33.43497 67 34 L 67 64 L 68 64 C 68.56503 64 69 64.43497 69 65 L 69 68 C 69 68.56503 68.56503 69 68 69 L 12 69 C 11.43497 69 11 68.56503 11 68 L 11 65 C 11 64.43497 11.43497 64 12 64 L 13 64 L 13 34 C 13 33.43497 13.43497 33 14 33 z M 16 36 A 1 1 0 0 0 15 37 A 1 1 0 0 0 16 38 A 1 1 0 0 0 17 37 A 1 1 0 0 0 16 36 z M 20 36 A 1 1 0 0 0 19 37 A 1 1 0 0 0 20 38 A 1 1 0 0 0 21 37 A 1 1 0 0 0 20 36 z M 24 36 A 1 1 0 0 0 23 37 A 1 1 0 0 0 24 38 A 1 1 0 0 0 25 37 A 1 1 0 0 0 24 36 z M 28 36 A 1 1 0 0 0 27 37 A 1 1 0 0 0 28 38 A 1 1 0 0 0 29 37 A 1 1 0 0 0 28 36 z M 32 36 A 1 1 0 0 0 31 37 A 1 1 0 0 0 32 38 A 1 1 0 0 0 33 37 A 1 1 0 0 0 32 36 z M 36 36 A 1 1 0 0 0 35 37 A 1 1 0 0 0 36 38 A 1 1 0 0 0 37 37 A 1 1 0 0 0 36 36 z M 40 36 A 1 1 0 0 0 39 37 A 1 1 0 0 0 40 38 A 1 1 0 0 0 41 37 A 1 1 0 0 0 40 36 z M 44 36 A 1 1 0 0 0 43 37 A 1 1 0 0 0 44 38 A 1 1 0 0 0 45 37 A 1 1 0 0 0 44 36 z M 48 36 A 1 1 0 0 0 47 37 A 1 1 0 0 0 48 38 A 1 1 0 0 0 49 37 A 1 1 0 0 0 48 36 z M 52 36 A 1 1 0 0 0 51 37 A 1 1 0 0 0 52 38 A 1 1 0 0 0 53 37 A 1 1 0 0 0 52 36 z M 56 36 A 1 1 0 0 0 55 37 A 1 1 0 0 0 56 38 A 1 1 0 0 0 57 37 A 1 1 0 0 0 56 36 z M 60 36 A 1 1 0 0 0 59 37 A 1 1 0 0 0 60 38 A 1 1 0 0 0 61 37 A 1 1 0 0 0 60 36 z M 64 36 A 1 1 0 0 0 63 37 A 1 1 0 0 0 64 38 A 1 1 0 0 0 65 37 A 1 1 0 0 0 64 36 z M 40 41 C 37.250484 41 35 43.250484 35 46 C 35 47.58772 35.843001 48.902833 37 49.814453 L 37 54 C 37 55.64497 38.35503 57 40 57 C 41.64497 57 43 55.64497 43 54 L 43 49.814453 C 44.156999 48.902833 45 47.58772 45 46 C 45 43.250484 42.749516 41 40 41 z M 40 43 C 41.668484 43 43 44.331516 43 46 C 43 47.111845 42.39835 48.056224 41.498047 48.580078 L 41 48.869141 L 41 54 C 41 54.56503 40.56503 55 40 55 C 39.43497 55 39 54.56503 39 54 L 39 48.869141 L 38.501953 48.580078 C 37.60165 48.056224 37 47.111845 37 46 C 37 44.331516 38.331516 43 40 43 z M 16 62 A 1 1 0 0 0 15 63 A 1 1 0 0 0 16 64 A 1 1 0 0 0 17 63 A 1 1 0 0 0 16 62 z M 20 62 A 1 1 0 0 0 19 63 A 1 1 0 0 0 20 64 A 1 1 0 0 0 21 63 A 1 1 0 0 0 20 62 z M 24 62 A 1 1 0 0 0 23 63 A 1 1 0 0 0 24 64 A 1 1 0 0 0 25 63 A 1 1 0 0 0 24 62 z M 28 62 A 1 1 0 0 0 27 63 A 1 1 0 0 0 28 64 A 1 1 0 0 0 29 63 A 1 1 0 0 0 28 62 z M 32 62 A 1 1 0 0 0 31 63 A 1 1 0 0 0 32 64 A 1 1 0 0 0 33 63 A 1 1 0 0 0 32 62 z M 36 62 A 1 1 0 0 0 35 63 A 1 1 0 0 0 36 64 A 1 1 0 0 0 37 63 A 1 1 0 0 0 36 62 z M 40 62 A 1 1 0 0 0 39 63 A 1 1 0 0 0 40 64 A 1 1 0 0 0 41 63 A 1 1 0 0 0 40 62 z M 44 62 A 1 1 0 0 0 43 63 A 1 1 0 0 0 44 64 A 1 1 0 0 0 45 63 A 1 1 0 0 0 44 62 z M 48 62 A 1 1 0 0 0 47 63 A 1 1 0 0 0 48 64 A 1 1 0 0 0 49 63 A 1 1 0 0 0 48 62 z M 52 62 A 1 1 0 0 0 51 63 A 1 1 0 0 0 52 64 A 1 1 0 0 0 53 63 A 1 1 0 0 0 52 62 z M 56 62 A 1 1 0 0 0 55 63 A 1 1 0 0 0 56 64 A 1 1 0 0 0 57 63 A 1 1 0 0 0 56 62 z M 60 62 A 1 1 0 0 0 59 63 A 1 1 0 0 0 60 64 A 1 1 0 0 0 61 63 A 1 1 0 0 0 60 62 z M 64 62 A 1 1 0 0 0 63 63 A 1 1 0 0 0 64 64 A 1 1 0 0 0 65 63 A 1 1 0 0 0 64 62 z"/>
</svg>
